<svg width="32" height="32" viewBox="0 0 32 32" fill="none" xmlns="http://www.w3.org/2000/svg">
<g clip-path="url(#clip0_150_6)">
<path d="M26 0H6C2.68629 0 0 2.68629 0 6V26C0 29.3137 2.68629 32 6 32H26C29.3137 32 32 29.3137 32 26V6C32 2.68629 29.3137 0 26 0Z" fill="#141414"/>
<path d="M5.25586 12C5.41211 11.9414 5.80273 11.8193 6.42773 11.6338C7.0625 11.4385 7.80957 11.2529 8.66895 11.0771C9.52832 10.8916 10.3389 10.7988 11.1006 10.7988C12.917 10.7988 14.2939 11.1602 15.2314 11.8828C16.1787 12.6055 16.6523 13.7969 16.6523 15.457V24.5977L19.0547 25.1982V26.8535L14.3965 27L13.7666 24.9053C13.1221 25.5498 12.375 26.1113 11.5254 26.5898C10.6855 27.0586 9.79199 27.293 8.84473 27.293C7.42871 27.293 6.3252 26.9023 5.53418 26.1211C4.74316 25.3301 4.34766 24.2217 4.34766 22.7959C4.34766 21.1357 4.94336 19.9492 6.13477 19.2363C7.32617 18.5137 9.03027 18.1523 11.2471 18.1523H13.6494V15.75C13.6494 14.8711 13.4053 14.2021 12.917 13.7432C12.4287 13.2842 11.7207 13.0547 10.793 13.0547C10.2559 13.0547 9.7627 13.0889 9.31348 13.1572C8.86426 13.2256 8.50781 13.2939 8.24414 13.3623C7.99023 13.4307 7.83398 13.4746 7.77539 13.4941L7.35059 15.75H5.40234L5.25586 12ZM11.5547 20.1006C10.0703 20.1006 9.00586 20.3008 8.36133 20.7012C7.72656 21.1016 7.40918 21.751 7.40918 22.6494C7.40918 23.333 7.60449 23.8799 7.99512 24.29C8.38574 24.7002 8.92285 24.9053 9.60645 24.9053C10.2705 24.9053 10.9004 24.7246 11.4961 24.3633C12.0918 24.002 12.5996 23.6113 13.0195 23.1914C13.4395 22.7715 13.6494 22.542 13.6494 22.5029V20.1006H11.5547Z" fill="#FF6A00"/>
<path d="M24.5 27C25.8807 27 27 25.8807 27 24.5C27 23.1193 25.8807 22 24.5 22C23.1193 22 22 23.1193 22 24.5C22 25.8807 23.1193 27 24.5 27Z" fill="#FF6A00"/>
</g>
<defs>
<clipPath id="clip0_150_6">
<rect width="32" height="32" fill="white"/>
</clipPath>
</defs>
</svg>
