<svg width="32" height="32" viewBox="0 0 32 32" fill="none" xmlns="http://www.w3.org/2000/svg">
<g clip-path="url(#clip0_150_15)">
<path d="M26 0H6C2.68629 0 0 2.68629 0 6V26C0 29.3137 2.68629 32 6 32H26C29.3137 32 32 29.3137 32 26V6C32 2.68629 29.3137 0 26 0Z" fill="#141414"/>
<path d="M2.70326 21.5122V22H2.21545V21.5122H2.70326ZM2.70326 21.0244V21.5122H2.21545V21.0244H2.70326ZM2.70326 20.5366V21.0244H2.21545V20.5366H2.70326ZM2.70326 20.0488V20.5366H2.21545V20.0488H2.70326ZM2.70326 19.561V20.0488H2.21545V19.561H2.70326ZM2.70326 19.0732V19.561H2.21545V19.0732H2.70326ZM2.70326 18.5854V19.0732H2.21545V18.5854H2.70326ZM2.70326 18.0976V18.5854H2.21545V18.0976H2.70326ZM2.70326 17.6098V18.0976H2.21545V17.6098H2.70326ZM2.70326 17.122V17.6098H2.21545V17.122H2.70326ZM2.70326 16.6341V17.122H2.21545V16.6341H2.70326ZM2.70326 16.1463V16.6341H2.21545V16.1463H2.70326ZM2.70326 15.6585V16.1463H2.21545V15.6585H2.70326ZM2.70326 15.1707V15.6585H2.21545V15.1707H2.70326ZM2.70326 14.6829V15.1707H2.21545V14.6829H2.70326ZM3.19106 14.6829V15.1707H2.70326V14.6829H3.19106ZM3.19106 15.1707V15.6585H2.70326V15.1707H3.19106ZM3.19106 15.6585V16.1463H2.70326V15.6585H3.19106ZM3.19106 16.1463V16.6341H2.70326V16.1463H3.19106ZM3.19106 16.6341V17.122H2.70326V16.6341H3.19106ZM3.19106 17.122V17.6098H2.70326V17.122H3.19106ZM3.19106 17.6098V18.0976H2.70326V17.6098H3.19106ZM3.67887 18.0976V18.5854H3.19106V18.0976H3.67887ZM3.67887 18.5854V19.0732H3.19106V18.5854H3.67887ZM3.67887 19.0732V19.561H3.19106V19.0732H3.67887ZM3.67887 19.561V20.0488H3.19106V19.561H3.67887ZM3.67887 20.0488V20.5366H3.19106V20.0488H3.67887ZM3.67887 20.5366V21.0244H3.19106V20.5366H3.67887ZM3.67887 21.0244V21.5122H3.19106V21.0244H3.67887ZM3.67887 21.5122V22H3.19106V21.5122H3.67887ZM4.16667 21.5122V22H3.67887V21.5122H4.16667ZM4.65448 21.5122V22H4.16667V21.5122H4.65448ZM4.65448 21.0244V21.5122H4.16667V21.0244H4.65448ZM4.65448 20.5366V21.0244H4.16667V20.5366H4.65448ZM4.65448 20.0488V20.5366H4.16667V20.0488H4.65448ZM4.65448 19.561V20.0488H4.16667V19.561H4.65448ZM4.65448 19.0732V19.561H4.16667V19.0732H4.65448ZM4.65448 18.5854V19.0732H4.16667V18.5854H4.65448ZM4.65448 18.0976V18.5854H4.16667V18.0976H4.65448ZM4.16667 18.0976V18.5854H3.67887V18.0976H4.16667ZM4.16667 17.6098V18.0976H3.67887V17.6098H4.16667ZM4.16667 18.5854V19.0732H3.67887V18.5854H4.16667ZM4.16667 19.0732V19.561H3.67887V19.0732H4.16667ZM4.16667 19.561V20.0488H3.67887V19.561H4.16667ZM4.16667 20.0488V20.5366H3.67887V20.0488H4.16667ZM4.16667 20.5366V21.0244H3.67887V20.5366H4.16667ZM4.16667 21.0244V21.5122H3.67887V21.0244H4.16667ZM3.19106 21.5122V22H2.70326V21.5122H3.19106ZM3.19106 21.0244V21.5122H2.70326V21.0244H3.19106ZM3.19106 20.5366V21.0244H2.70326V20.5366H3.19106ZM3.19106 20.0488V20.5366H2.70326V20.0488H3.19106ZM3.19106 19.561V20.0488H2.70326V19.561H3.19106ZM3.19106 19.0732V19.561H2.70326V19.0732H3.19106ZM3.19106 18.5854V19.0732H2.70326V18.5854H3.19106ZM3.19106 18.0976V18.5854H2.70326V18.0976H3.19106ZM2.70326 13.2195V13.7073H2.21545V13.2195H2.70326ZM2.70326 13.7073V14.1951H2.21545V13.7073H2.70326ZM2.70326 14.1951V14.6829H2.21545V14.1951H2.70326ZM4.16667 12.2439V12.7317H3.67887V12.2439H4.16667ZM4.16667 13.2195V13.7073H3.67887V13.2195H4.16667ZM4.16667 13.7073V14.1951H3.67887V13.7073H4.16667ZM4.16667 14.1951V14.6829H3.67887V14.1951H4.16667ZM4.16667 14.6829V15.1707H3.67887V14.6829H4.16667ZM4.16667 15.1707V15.6585H3.67887V15.1707H4.16667ZM4.16667 15.6585V16.1463H3.67887V15.6585H4.16667ZM4.16667 16.1463V16.6341H3.67887V16.1463H4.16667ZM4.65448 16.6341V17.122H4.16667V16.6341H4.65448ZM4.65448 17.122V17.6098H4.16667V17.122H4.65448ZM4.65448 17.6098V18.0976H4.16667V17.6098H4.65448ZM4.65448 16.1463V16.6341H4.16667V16.1463H4.65448ZM4.65448 15.6585V16.1463H4.16667V15.6585H4.65448ZM4.65448 15.1707V15.6585H4.16667V15.1707H4.65448ZM4.65448 14.6829V15.1707H4.16667V14.6829H4.65448ZM4.65448 14.1951V14.6829H4.16667V14.1951H4.65448ZM4.65448 13.7073V14.1951H4.16667V13.7073H4.65448ZM4.65448 13.2195V13.7073H4.16667V13.2195H4.65448ZM4.65448 12.7317V13.2195H4.16667V12.7317H4.65448ZM4.65448 12.2439V12.7317H4.16667V12.2439H4.65448ZM4.65448 11.7561V12.2439H4.16667V11.7561H4.65448ZM4.16667 12.7317V13.2195H3.67887V12.7317H4.16667ZM4.65448 11.2683V11.7561H4.16667V11.2683H4.65448ZM4.65448 10.7805V11.2683H4.16667V10.7805H4.65448ZM3.67887 12.2439V12.7317H3.19106V12.2439H3.67887ZM3.67887 12.7317V13.2195H3.19106V12.7317H3.67887ZM3.67887 13.2195V13.7073H3.19106V13.2195H3.67887ZM3.19106 13.7073V14.1951H2.70326V13.7073H3.19106ZM3.19106 14.1951V14.6829H2.70326V14.1951H3.19106ZM3.19106 13.2195V13.7073H2.70326V13.2195H3.19106ZM3.19106 12.7317V13.2195H2.70326V12.7317H3.19106ZM3.67887 13.7073V14.1951H3.19106V13.7073H3.67887ZM3.67887 14.1951V14.6829H3.19106V14.1951H3.67887ZM3.67887 14.6829V15.1707H3.19106V14.6829H3.67887ZM3.67887 15.1707V15.6585H3.19106V15.1707H3.67887ZM3.67887 15.6585V16.1463H3.19106V15.6585H3.67887ZM3.67887 16.1463V16.6341H3.19106V16.1463H3.67887ZM3.67887 16.6341V17.122H3.19106V16.6341H3.67887ZM3.67887 17.122V17.6098H3.19106V17.122H3.67887ZM3.67887 17.6098V18.0976H3.19106V17.6098H3.67887ZM4.16667 17.122V17.6098H3.67887V17.122H4.16667ZM4.16667 16.6341V17.122H3.67887V16.6341H4.16667ZM8.06911 21.5122V22H7.58131V21.5122H8.06911ZM8.06911 21.0244V21.5122H7.58131V21.0244H8.06911ZM8.06911 20.5366V21.0244H7.58131V20.5366H8.06911ZM8.06911 20.0488V20.5366H7.58131V20.0488H8.06911ZM8.06911 19.561V20.0488H7.58131V19.561H8.06911ZM8.06911 19.0732V19.561H7.58131V19.0732H8.06911ZM8.06911 18.5854V19.0732H7.58131V18.5854H8.06911ZM8.06911 18.0976V18.5854H7.58131V18.0976H8.06911ZM8.06911 17.6098V18.0976H7.58131V17.6098H8.06911ZM8.06911 17.122V17.6098H7.58131V17.122H8.06911ZM8.06911 16.6341V17.122H7.58131V16.6341H8.06911ZM8.06911 16.1463V16.6341H7.58131V16.1463H8.06911ZM8.06911 15.6585V16.1463H7.58131V15.6585H8.06911ZM8.06911 15.1707V15.6585H7.58131V15.1707H8.06911ZM8.06911 14.6829V15.1707H7.58131V14.6829H8.06911ZM8.55692 14.6829V15.1707H8.06911V14.6829H8.55692ZM8.55692 15.1707V15.6585H8.06911V15.1707H8.55692ZM8.55692 15.6585V16.1463H8.06911V15.6585H8.55692ZM8.55692 16.1463V16.6341H8.06911V16.1463H8.55692ZM8.55692 16.6341V17.122H8.06911V16.6341H8.55692ZM8.55692 17.122V17.6098H8.06911V17.122H8.55692ZM8.55692 17.6098V18.0976H8.06911V17.6098H8.55692ZM9.04472 18.0976V18.5854H8.55692V18.0976H9.04472ZM9.04472 18.5854V19.0732H8.55692V18.5854H9.04472ZM9.04472 19.0732V19.561H8.55692V19.0732H9.04472ZM9.04472 19.561V20.0488H8.55692V19.561H9.04472ZM9.04472 20.0488V20.5366H8.55692V20.0488H9.04472ZM9.04472 20.5366V21.0244H8.55692V20.5366H9.04472ZM9.04472 21.0244V21.5122H8.55692V21.0244H9.04472ZM9.04472 21.5122V22H8.55692V21.5122H9.04472ZM9.53253 21.5122V22H9.04472V21.5122H9.53253ZM10.0203 21.5122V22H9.53253V21.5122H10.0203ZM10.0203 21.0244V21.5122H9.53253V21.0244H10.0203ZM10.0203 20.5366V21.0244H9.53253V20.5366H10.0203ZM10.0203 20.0488V20.5366H9.53253V20.0488H10.0203ZM10.0203 19.561V20.0488H9.53253V19.561H10.0203ZM10.0203 19.0732V19.561H9.53253V19.0732H10.0203ZM10.0203 18.5854V19.0732H9.53253V18.5854H10.0203ZM10.0203 18.0976V18.5854H9.53253V18.0976H10.0203ZM9.53253 18.0976V18.5854H9.04472V18.0976H9.53253ZM9.53253 17.6098V18.0976H9.04472V17.6098H9.53253ZM9.53253 18.5854V19.0732H9.04472V18.5854H9.53253ZM9.53253 19.0732V19.561H9.04472V19.0732H9.53253ZM9.53253 19.561V20.0488H9.04472V19.561H9.53253ZM9.53253 20.0488V20.5366H9.04472V20.0488H9.53253ZM9.53253 20.5366V21.0244H9.04472V20.5366H9.53253ZM9.53253 21.0244V21.5122H9.04472V21.0244H9.53253ZM8.55692 21.5122V22H8.06911V21.5122H8.55692ZM8.55692 21.0244V21.5122H8.06911V21.0244H8.55692ZM8.55692 20.5366V21.0244H8.06911V20.5366H8.55692ZM8.55692 20.0488V20.5366H8.06911V20.0488H8.55692ZM8.55692 19.561V20.0488H8.06911V19.561H8.55692ZM8.55692 19.0732V19.561H8.06911V19.0732H8.55692ZM8.55692 18.5854V19.0732H8.06911V18.5854H8.55692ZM8.55692 18.0976V18.5854H8.06911V18.0976H8.55692ZM8.06911 10.7805V11.2683H7.58131V10.7805H8.06911ZM8.06911 11.2683V11.7561H7.58131V11.2683H8.06911ZM8.06911 11.7561V12.2439H7.58131V11.7561H8.06911ZM8.06911 12.2439V12.7317H7.58131V12.2439H8.06911ZM8.06911 12.7317V13.2195H7.58131V12.7317H8.06911ZM8.06911 13.2195V13.7073H7.58131V13.2195H8.06911ZM8.06911 13.7073V14.1951H7.58131V13.7073H8.06911ZM8.06911 14.1951V14.6829H7.58131V14.1951H8.06911ZM9.53253 12.2439V12.7317H9.04472V12.2439H9.53253ZM9.53253 13.2195V13.7073H9.04472V13.2195H9.53253ZM9.53253 13.7073V14.1951H9.04472V13.7073H9.53253ZM9.53253 14.1951V14.6829H9.04472V14.1951H9.53253ZM9.53253 14.6829V15.1707H9.04472V14.6829H9.53253ZM9.53253 15.1707V15.6585H9.04472V15.1707H9.53253ZM9.53253 15.6585V16.1463H9.04472V15.6585H9.53253ZM9.53253 16.1463V16.6341H9.04472V16.1463H9.53253ZM10.0203 16.6341V17.122H9.53253V16.6341H10.0203ZM10.0203 17.122V17.6098H9.53253V17.122H10.0203ZM10.0203 17.6098V18.0976H9.53253V17.6098H10.0203ZM10.0203 16.1463V16.6341H9.53253V16.1463H10.0203ZM10.0203 15.6585V16.1463H9.53253V15.6585H10.0203ZM10.0203 15.1707V15.6585H9.53253V15.1707H10.0203ZM10.0203 14.6829V15.1707H9.53253V14.6829H10.0203ZM10.0203 14.1951V14.6829H9.53253V14.1951H10.0203ZM10.0203 13.7073V14.1951H9.53253V13.7073H10.0203ZM10.0203 13.2195V13.7073H9.53253V13.2195H10.0203ZM10.0203 12.7317V13.2195H9.53253V12.7317H10.0203ZM9.53253 12.7317V13.2195H9.04472V12.7317H9.53253ZM9.04472 11.7561V12.2439H8.55692V11.7561H9.04472ZM9.04472 12.2439V12.7317H8.55692V12.2439H9.04472ZM9.04472 12.7317V13.2195H8.55692V12.7317H9.04472ZM9.04472 13.2195V13.7073H8.55692V13.2195H9.04472ZM8.55692 13.7073V14.1951H8.06911V13.7073H8.55692ZM8.55692 14.1951V14.6829H8.06911V14.1951H8.55692ZM8.55692 13.2195V13.7073H8.06911V13.2195H8.55692ZM8.55692 12.7317V13.2195H8.06911V12.7317H8.55692ZM8.55692 12.2439V12.7317H8.06911V12.2439H8.55692ZM8.55692 11.7561V12.2439H8.06911V11.7561H8.55692ZM8.55692 11.2683V11.7561H8.06911V11.2683H8.55692ZM9.04472 13.7073V14.1951H8.55692V13.7073H9.04472ZM9.04472 14.1951V14.6829H8.55692V14.1951H9.04472ZM9.04472 14.6829V15.1707H8.55692V14.6829H9.04472ZM9.04472 15.1707V15.6585H8.55692V15.1707H9.04472ZM9.04472 15.6585V16.1463H8.55692V15.6585H9.04472ZM9.04472 16.1463V16.6341H8.55692V16.1463H9.04472ZM9.04472 16.6341V17.122H8.55692V16.6341H9.04472ZM9.04472 17.122V17.6098H8.55692V17.122H9.04472ZM9.04472 17.6098V18.0976H8.55692V17.6098H9.04472ZM9.53253 17.122V17.6098H9.04472V17.122H9.53253ZM9.53253 16.6341V17.122H9.04472V16.6341H9.53253ZM5.63009 9.80488V10.2927H5.14228V9.80488H5.63009ZM6.11789 9.80488V10.2927H5.63009V9.80488H6.11789ZM6.6057 9.80488V10.2927H6.11789V9.80488H6.6057ZM7.0935 9.80488V10.2927H6.6057V9.80488H7.0935ZM7.58131 10.2927V10.7805H7.0935V10.2927H7.58131ZM7.0935 10.2927V10.7805H6.6057V10.2927H7.0935ZM6.6057 10.2927V10.7805H6.11789V10.2927H6.6057ZM6.11789 10.2927V10.7805H5.63009V10.2927H6.11789ZM5.63009 10.2927V10.7805H5.14228V10.2927H5.63009ZM5.14228 10.2927V10.7805H4.65448V10.2927H5.14228ZM5.14228 10.7805V11.2683H4.65448V10.7805H5.14228ZM5.14228 11.2683V11.7561H4.65448V11.2683H5.14228ZM5.63009 10.7805V11.2683H5.14228V10.7805H5.63009ZM6.11789 10.7805V11.2683H5.63009V10.7805H6.11789ZM6.6057 10.7805V11.2683H6.11789V10.7805H6.6057ZM7.0935 10.7805V11.2683H6.6057V10.7805H7.0935ZM7.58131 10.7805V11.2683H7.0935V10.7805H7.58131ZM7.58131 11.2683V11.7561H7.0935V11.2683H7.58131ZM7.0935 11.2683V11.7561H6.6057V11.2683H7.0935ZM6.6057 11.2683V11.7561H6.11789V11.2683H6.6057ZM6.11789 11.2683V11.7561H5.63009V11.2683H6.11789ZM5.63009 11.2683V11.7561H5.14228V11.2683H5.63009ZM5.14228 11.7561V12.2439H4.65448V11.7561H5.14228ZM5.63009 11.7561V12.2439H5.14228V11.7561H5.63009ZM7.58131 11.7561V12.2439H7.0935V11.7561H7.58131ZM7.0935 11.7561V12.2439H6.6057V11.7561H7.0935ZM7.58131 12.2439V12.7317H7.0935V12.2439H7.58131ZM5.14228 12.2439V12.7317H4.65448V12.2439H5.14228ZM4.16667 11.2683V11.7561H3.67887V11.2683H4.16667ZM4.16667 11.7561V12.2439H3.67887V11.7561H4.16667ZM3.67887 11.7561V12.2439H3.19106V11.7561H3.67887ZM3.19106 12.2439V12.7317H2.70326V12.2439H3.19106ZM2.70326 12.7317V13.2195H2.21545V12.7317H2.70326ZM5.14228 12.7317V13.2195H4.65448V12.7317H5.14228ZM5.63009 12.2439V12.7317H5.14228V12.2439H5.63009ZM6.11789 11.7561V12.2439H5.63009V11.7561H6.11789ZM6.6057 11.7561V12.2439H6.11789V11.7561H6.6057ZM7.0935 12.2439V12.7317H6.6057V12.2439H7.0935ZM7.58131 12.7317V13.2195H7.0935V12.7317H7.58131ZM5.14228 18.5854V19.0732H4.65448V18.5854H5.14228ZM5.63009 18.5854V19.0732H5.14228V18.5854H5.63009ZM6.11789 18.5854V19.0732H5.63009V18.5854H6.11789ZM6.6057 18.5854V19.0732H6.11789V18.5854H6.6057ZM7.0935 18.5854V19.0732H6.6057V18.5854H7.0935ZM7.58131 18.5854V19.0732H7.0935V18.5854H7.58131ZM7.58131 18.0976V18.5854H7.0935V18.0976H7.58131ZM7.0935 18.0976V18.5854H6.6057V18.0976H7.0935ZM6.6057 18.0976V18.5854H6.11789V18.0976H6.6057ZM6.11789 18.0976V18.5854H5.63009V18.0976H6.11789ZM5.63009 18.0976V18.5854H5.14228V18.0976H5.63009ZM5.14228 18.0976V18.5854H4.65448V18.0976H5.14228ZM5.14228 17.6098V18.0976H4.65448V17.6098H5.14228ZM5.63009 17.6098V18.0976H5.14228V17.6098H5.63009ZM6.11789 17.6098V18.0976H5.63009V17.6098H6.11789ZM6.6057 17.6098V18.0976H6.11789V17.6098H6.6057ZM7.0935 17.6098V18.0976H6.6057V17.6098H7.0935ZM7.58131 17.6098V18.0976H7.0935V17.6098H7.58131ZM7.58131 17.122V17.6098H7.0935V17.122H7.58131ZM7.0935 17.122V17.6098H6.6057V17.122H7.0935ZM6.6057 17.122V17.6098H6.11789V17.122H6.6057ZM6.11789 17.122V17.6098H5.63009V17.122H6.11789ZM5.63009 17.122V17.6098H5.14228V17.122H5.63009ZM5.14228 17.122V17.6098H4.65448V17.122H5.14228ZM5.14228 16.6341V17.122H4.65448V16.6341H5.14228ZM5.63009 16.6341V17.122H5.14228V16.6341H5.63009ZM6.11789 16.6341V17.122H5.63009V16.6341H6.11789ZM6.6057 16.6341V17.122H6.11789V16.6341H6.6057ZM7.0935 16.6341V17.122H6.6057V16.6341H7.0935ZM7.58131 16.6341V17.122H7.0935V16.6341H7.58131ZM6.11789 12.2439V12.7317H5.63009V12.2439H6.11789ZM6.6057 12.2439V12.7317H6.11789V12.2439H6.6057ZM5.63009 12.7317V13.2195H5.14228V12.7317H5.63009ZM5.14228 13.2195V13.7073H4.65448V13.2195H5.14228ZM7.0935 12.7317V13.2195H6.6057V12.7317H7.0935ZM7.58131 13.2195V13.7073H7.0935V13.2195H7.58131ZM13.0689 19.561V20.0488H12.5811V19.561H13.0689ZM13.0689 19.0732V19.561H12.5811V19.0732H13.0689ZM13.0689 18.5854V19.0732H12.5811V18.5854H13.0689ZM13.0689 18.0976V18.5854H12.5811V18.0976H13.0689ZM14.0445 18.0976V18.5854H13.5567V18.0976H14.0445ZM14.0445 18.5854V19.0732H13.5567V18.5854H14.0445ZM14.0445 19.0732V19.561H13.5567V19.0732H14.0445ZM14.0445 19.561V20.0488H13.5567V19.561H14.0445ZM14.0445 20.0488V20.5366H13.5567V20.0488H14.0445ZM14.0445 20.5366V21.0244H13.5567V20.5366H14.0445ZM14.0445 21.0244V21.5122H13.5567V21.0244H14.0445ZM15.0201 21.5122V22H14.5323V21.5122H15.0201ZM15.0201 21.0244V21.5122H14.5323V21.0244H15.0201ZM15.0201 20.5366V21.0244H14.5323V20.5366H15.0201ZM15.0201 20.0488V20.5366H14.5323V20.0488H15.0201ZM15.0201 19.561V20.0488H14.5323V19.561H15.0201ZM15.0201 19.0732V19.561H14.5323V19.0732H15.0201ZM15.0201 18.5854V19.0732H14.5323V18.5854H15.0201ZM15.0201 18.0976V18.5854H14.5323V18.0976H15.0201ZM14.5323 18.0976V18.5854H14.0445V18.0976H14.5323ZM14.5323 18.5854V19.0732H14.0445V18.5854H14.5323ZM14.5323 19.0732V19.561H14.0445V19.0732H14.5323ZM14.5323 19.561V20.0488H14.0445V19.561H14.5323ZM14.5323 20.0488V20.5366H14.0445V20.0488H14.5323ZM14.5323 20.5366V21.0244H14.0445V20.5366H14.5323ZM14.5323 21.0244V21.5122H14.0445V21.0244H14.5323ZM13.5567 20.5366V21.0244H13.0689V20.5366H13.5567ZM13.5567 20.0488V20.5366H13.0689V20.0488H13.5567ZM13.5567 19.561V20.0488H13.0689V19.561H13.5567ZM13.5567 19.0732V19.561H13.0689V19.0732H13.5567ZM13.5567 18.5854V19.0732H13.0689V18.5854H13.5567ZM13.5567 18.0976V18.5854H13.0689V18.0976H13.5567ZM17.9469 21.5122V22H17.4591V21.5122H17.9469ZM17.9469 21.0244V21.5122H17.4591V21.0244H17.9469ZM17.9469 20.5366V21.0244H17.4591V20.5366H17.9469ZM17.9469 20.0488V20.5366H17.4591V20.0488H17.9469ZM17.9469 19.561V20.0488H17.4591V19.561H17.9469ZM17.9469 19.0732V19.561H17.4591V19.0732H17.9469ZM17.9469 18.5854V19.0732H17.4591V18.5854H17.9469ZM17.9469 18.0976V18.5854H17.4591V18.0976H17.9469ZM17.9469 17.6098V18.0976H17.4591V17.6098H17.9469ZM17.9469 17.122V17.6098H17.4591V17.122H17.9469ZM17.9469 16.6341V17.122H17.4591V16.6341H17.9469ZM18.4347 16.6341V17.122H17.9469V16.6341H18.4347ZM18.4347 17.122V17.6098H17.9469V17.122H18.4347ZM18.4347 17.6098V18.0976H17.9469V17.6098H18.4347ZM18.9225 18.0976V18.5854H18.4347V18.0976H18.9225ZM18.9225 18.5854V19.0732H18.4347V18.5854H18.9225ZM18.9225 19.0732V19.561H18.4347V19.0732H18.9225ZM18.9225 19.561V20.0488H18.4347V19.561H18.9225ZM18.9225 20.0488V20.5366H18.4347V20.0488H18.9225ZM18.9225 20.5366V21.0244H18.4347V20.5366H18.9225ZM18.9225 21.0244V21.5122H18.4347V21.0244H18.9225ZM19.8982 19.561V20.0488H19.4103V19.561H19.8982ZM19.8982 19.0732V19.561H19.4103V19.0732H19.8982ZM19.8982 18.5854V19.0732H19.4103V18.5854H19.8982ZM19.8982 18.0976V18.5854H19.4103V18.0976H19.8982ZM19.4103 18.0976V18.5854H18.9225V18.0976H19.4103ZM19.4103 17.6098V18.0976H18.9225V17.6098H19.4103ZM19.4103 18.5854V19.0732H18.9225V18.5854H19.4103ZM19.4103 19.0732V19.561H18.9225V19.0732H19.4103ZM19.4103 19.561V20.0488H18.9225V19.561H19.4103ZM19.4103 20.0488V20.5366H18.9225V20.0488H19.4103ZM19.4103 20.5366V21.0244H18.9225V20.5366H19.4103ZM18.4347 21.0244V21.5122H17.9469V21.0244H18.4347ZM18.4347 20.5366V21.0244H17.9469V20.5366H18.4347ZM18.4347 20.0488V20.5366H17.9469V20.0488H18.4347ZM18.4347 19.561V20.0488H17.9469V19.561H18.4347ZM18.4347 19.0732V19.561H17.9469V19.0732H18.4347ZM18.4347 18.5854V19.0732H17.9469V18.5854H18.4347ZM18.4347 18.0976V18.5854H17.9469V18.0976H18.4347ZM19.8982 16.6341V17.122H19.4103V16.6341H19.8982ZM19.8982 17.122V17.6098H19.4103V17.122H19.8982ZM19.8982 17.6098V18.0976H19.4103V17.6098H19.8982ZM18.9225 16.6341V17.122H18.4347V16.6341H18.9225ZM18.9225 17.122V17.6098H18.4347V17.122H18.9225ZM18.9225 17.6098V18.0976H18.4347V17.6098H18.9225ZM19.4103 17.122V17.6098H18.9225V17.122H19.4103ZM19.4103 16.6341V17.122H18.9225V16.6341H19.4103ZM15.5079 21.5122V22H15.0201V21.5122H15.5079ZM15.9957 21.5122V22H15.5079V21.5122H15.9957ZM16.4835 21.5122V22H15.9957V21.5122H16.4835ZM16.9713 21.5122V22H16.4835V21.5122H16.9713ZM17.4591 21.5122V22H16.9713V21.5122H17.4591ZM17.4591 21.0244V21.5122H16.9713V21.0244H17.4591ZM16.9713 21.0244V21.5122H16.4835V21.0244H16.9713ZM16.4835 21.0244V21.5122H15.9957V21.0244H16.4835ZM15.9957 21.0244V21.5122H15.5079V21.0244H15.9957ZM15.5079 21.0244V21.5122H15.0201V21.0244H15.5079ZM15.5079 20.5366V21.0244H15.0201V20.5366H15.5079ZM15.9957 20.5366V21.0244H15.5079V20.5366H15.9957ZM16.4835 20.5366V21.0244H15.9957V20.5366H16.4835ZM16.9713 20.5366V21.0244H16.4835V20.5366H16.9713ZM17.4591 20.5366V21.0244H16.9713V20.5366H17.4591ZM17.4591 20.0488V20.5366H16.9713V20.0488H17.4591ZM16.9713 20.0488V20.5366H16.4835V20.0488H16.9713ZM16.4835 20.0488V20.5366H15.9957V20.0488H16.4835ZM15.9957 20.0488V20.5366H15.5079V20.0488H15.9957ZM15.5079 20.0488V20.5366H15.0201V20.0488H15.5079ZM15.5079 19.561V20.0488H15.0201V19.561H15.5079ZM17.4591 19.561V20.0488H16.9713V19.561H17.4591ZM17.9469 9.80488V10.2927H17.4591V9.80488H17.9469ZM17.9469 10.2927V10.7805H17.4591V10.2927H17.9469ZM17.9469 10.7805V11.2683H17.4591V10.7805H17.9469ZM17.9469 11.2683V11.7561H17.4591V11.2683H17.9469ZM17.9469 11.7561V12.2439H17.4591V11.7561H17.9469ZM17.9469 12.2439V12.7317H17.4591V12.2439H17.9469ZM17.9469 12.7317V13.2195H17.4591V12.7317H17.9469ZM17.9469 13.2195V13.7073H17.4591V13.2195H17.9469ZM17.9469 13.7073V14.1951H17.4591V13.7073H17.9469ZM17.9469 14.1951V14.6829H17.4591V14.1951H17.9469ZM17.9469 14.6829V15.1707H17.4591V14.6829H17.9469ZM17.9469 15.1707V15.6585H17.4591V15.1707H17.9469ZM18.4347 15.1707V15.6585H17.9469V15.1707H18.4347ZM18.4347 15.6585V16.1463H17.9469V15.6585H18.4347ZM17.9469 15.6585V16.1463H17.4591V15.6585H17.9469ZM17.9469 16.1463V16.6341H17.4591V16.1463H17.9469ZM18.4347 16.1463V16.6341H17.9469V16.1463H18.4347ZM18.9225 16.1463V16.6341H18.4347V16.1463H18.9225ZM19.4103 16.1463V16.6341H18.9225V16.1463H19.4103ZM19.8982 16.1463V16.6341H19.4103V16.1463H19.8982ZM19.8982 15.6585V16.1463H19.4103V15.6585H19.8982ZM19.4103 15.6585V16.1463H18.9225V15.6585H19.4103ZM19.4103 15.1707V15.6585H18.9225V15.1707H19.4103ZM19.8982 14.6829V15.1707H19.4103V14.6829H19.8982ZM19.8982 14.1951V14.6829H19.4103V14.1951H19.8982ZM19.8982 13.7073V14.1951H19.4103V13.7073H19.8982ZM19.8982 13.2195V13.7073H19.4103V13.2195H19.8982ZM19.8982 12.7317V13.2195H19.4103V12.7317H19.8982ZM19.8982 12.2439V12.7317H19.4103V12.2439H19.8982ZM19.8982 11.7561V12.2439H19.4103V11.7561H19.8982ZM19.8982 11.2683V11.7561H19.4103V11.2683H19.8982ZM19.8982 15.1707V15.6585H19.4103V15.1707H19.8982ZM19.8982 10.7805V11.2683H19.4103V10.7805H19.8982ZM19.8982 10.2927V10.7805H19.4103V10.2927H19.8982ZM19.8982 9.80488V10.2927H19.4103V9.80488H19.8982ZM19.4103 9.80488V10.2927H18.9225V9.80488H19.4103ZM18.9225 9.80488V10.2927H18.4347V9.80488H18.9225ZM18.4347 9.80488V10.2927H17.9469V9.80488H18.4347ZM18.4347 10.2927V10.7805H17.9469V10.2927H18.4347ZM18.4347 10.7805V11.2683H17.9469V10.7805H18.4347ZM18.4347 11.2683V11.7561H17.9469V11.2683H18.4347ZM18.4347 11.7561V12.2439H17.9469V11.7561H18.4347ZM18.4347 12.2439V12.7317H17.9469V12.2439H18.4347ZM18.4347 12.7317V13.2195H17.9469V12.7317H18.4347ZM18.4347 13.2195V13.7073H17.9469V13.2195H18.4347ZM18.4347 13.7073V14.1951H17.9469V13.7073H18.4347ZM18.4347 14.1951V14.6829H17.9469V14.1951H18.4347ZM18.9225 14.6829V15.1707H18.4347V14.6829H18.9225ZM18.9225 15.1707V15.6585H18.4347V15.1707H18.9225ZM18.9225 15.6585V16.1463H18.4347V15.6585H18.9225ZM18.4347 14.6829V15.1707H17.9469V14.6829H18.4347ZM19.4103 14.6829V15.1707H18.9225V14.6829H19.4103ZM19.4103 13.7073V14.1951H18.9225V13.7073H19.4103ZM19.4103 13.2195V13.7073H18.9225V13.2195H19.4103ZM19.4103 12.7317V13.2195H18.9225V12.7317H19.4103ZM19.4103 12.2439V12.7317H18.9225V12.2439H19.4103ZM19.4103 11.7561V12.2439H18.9225V11.7561H19.4103ZM19.4103 11.2683V11.7561H18.9225V11.2683H19.4103ZM19.4103 10.7805V11.2683H18.9225V10.7805H19.4103ZM19.4103 10.2927V10.7805H18.9225V10.2927H19.4103ZM18.9225 10.2927V10.7805H18.4347V10.2927H18.9225ZM18.9225 10.7805V11.2683H18.4347V10.7805H18.9225ZM18.9225 11.2683V11.7561H18.4347V11.2683H18.9225ZM18.9225 11.7561V12.2439H18.4347V11.7561H18.9225ZM18.9225 12.2439V12.7317H18.4347V12.2439H18.9225ZM18.9225 12.7317V13.2195H18.4347V12.7317H18.9225ZM18.9225 13.2195V13.7073H18.4347V13.2195H18.9225ZM18.9225 13.7073V14.1951H18.4347V13.7073H18.9225ZM18.9225 14.1951V14.6829H18.4347V14.1951H18.9225ZM19.4103 14.1951V14.6829H18.9225V14.1951H19.4103ZM17.4591 19.0732V19.561H16.9713V19.0732H17.4591ZM15.5079 19.0732V19.561H15.0201V19.0732H15.5079ZM15.9957 19.561V20.0488H15.5079V19.561H15.9957ZM16.4835 19.561V20.0488H15.9957V19.561H16.4835ZM16.9713 19.561V20.0488H16.4835V19.561H16.9713ZM15.0201 17.6098V18.0976H14.5323V17.6098H15.0201ZM14.5323 17.6098V18.0976H14.0445V17.6098H14.5323ZM14.0445 17.6098V18.0976H13.5567V17.6098H14.0445ZM13.5567 17.6098V18.0976H13.0689V17.6098H13.5567ZM13.0689 17.6098V18.0976H12.5811V17.6098H13.0689ZM25.3853 21.5122V22H24.8974V21.5122H25.3853ZM25.3853 21.0244V21.5122H24.8974V21.0244H25.3853ZM25.3853 20.5366V21.0244H24.8974V20.5366H25.3853ZM25.3853 20.0488V20.5366H24.8974V20.0488H25.3853ZM25.3853 19.561V20.0488H24.8974V19.561H25.3853ZM25.3853 19.0732V19.561H24.8974V19.0732H25.3853ZM25.3853 18.5854V19.0732H24.8974V18.5854H25.3853ZM25.3853 18.0976V18.5854H24.8974V18.0976H25.3853ZM25.3853 17.6098V18.0976H24.8974V17.6098H25.3853ZM25.3853 17.122V17.6098H24.8974V17.122H25.3853ZM25.3853 16.6341V17.122H24.8974V16.6341H25.3853ZM25.3853 16.1463V16.6341H24.8974V16.1463H25.3853ZM25.3853 15.6585V16.1463H24.8974V15.6585H25.3853ZM25.3853 15.1707V15.6585H24.8974V15.1707H25.3853ZM25.3853 14.6829V15.1707H24.8974V14.6829H25.3853ZM25.8731 14.6829V15.1707H25.3853V14.6829H25.8731ZM25.8731 15.1707V15.6585H25.3853V15.1707H25.8731ZM25.8731 15.6585V16.1463H25.3853V15.6585H25.8731ZM25.8731 16.1463V16.6341H25.3853V16.1463H25.8731ZM25.8731 16.6341V17.122H25.3853V16.6341H25.8731ZM25.8731 17.122V17.6098H25.3853V17.122H25.8731ZM25.8731 17.6098V18.0976H25.3853V17.6098H25.8731ZM26.3609 18.0976V18.5854H25.8731V18.0976H26.3609ZM26.3609 18.5854V19.0732H25.8731V18.5854H26.3609ZM26.3609 19.0732V19.561H25.8731V19.0732H26.3609ZM26.3609 19.561V20.0488H25.8731V19.561H26.3609ZM26.3609 20.0488V20.5366H25.8731V20.0488H26.3609ZM26.3609 20.5366V21.0244H25.8731V20.5366H26.3609ZM26.3609 21.0244V21.5122H25.8731V21.0244H26.3609ZM26.3609 21.5122V22H25.8731V21.5122H26.3609ZM26.8487 21.5122V22H26.3609V21.5122H26.8487ZM27.3365 21.5122V22H26.8487V21.5122H27.3365ZM27.3365 21.0244V21.5122H26.8487V21.0244H27.3365ZM27.3365 20.5366V21.0244H26.8487V20.5366H27.3365ZM27.3365 20.0488V20.5366H26.8487V20.0488H27.3365ZM27.3365 19.561V20.0488H26.8487V19.561H27.3365ZM27.3365 19.0732V19.561H26.8487V19.0732H27.3365ZM27.3365 18.5854V19.0732H26.8487V18.5854H27.3365ZM27.3365 18.0976V18.5854H26.8487V18.0976H27.3365ZM26.8487 18.0976V18.5854H26.3609V18.0976H26.8487ZM26.8487 17.6098V18.0976H26.3609V17.6098H26.8487ZM26.8487 18.5854V19.0732H26.3609V18.5854H26.8487ZM26.8487 19.0732V19.561H26.3609V19.0732H26.8487ZM26.8487 19.561V20.0488H26.3609V19.561H26.8487ZM26.8487 20.0488V20.5366H26.3609V20.0488H26.8487ZM26.8487 20.5366V21.0244H26.3609V20.5366H26.8487ZM26.8487 21.0244V21.5122H26.3609V21.0244H26.8487ZM25.8731 21.5122V22H25.3853V21.5122H25.8731ZM25.8731 21.0244V21.5122H25.3853V21.0244H25.8731ZM25.8731 20.5366V21.0244H25.3853V20.5366H25.8731ZM25.8731 20.0488V20.5366H25.3853V20.0488H25.8731ZM25.8731 19.561V20.0488H25.3853V19.561H25.8731ZM25.8731 19.0732V19.561H25.3853V19.0732H25.8731ZM25.8731 18.5854V19.0732H25.3853V18.5854H25.8731ZM25.8731 18.0976V18.5854H25.3853V18.0976H25.8731ZM25.3853 9.80488V10.2927H24.8974V9.80488H25.3853ZM25.3853 10.2927V10.7805H24.8974V10.2927H25.3853ZM25.3853 10.7805V11.2683H24.8974V10.7805H25.3853ZM25.3853 11.2683V11.7561H24.8974V11.2683H25.3853ZM25.3853 11.7561V12.2439H24.8974V11.7561H25.3853ZM25.3853 12.2439V12.7317H24.8974V12.2439H25.3853ZM25.3853 12.7317V13.2195H24.8974V12.7317H25.3853ZM25.3853 13.2195V13.7073H24.8974V13.2195H25.3853ZM25.3853 13.7073V14.1951H24.8974V13.7073H25.3853ZM25.3853 14.1951V14.6829H24.8974V14.1951H25.3853ZM26.8487 9.80488V10.2927H26.3609V9.80488H26.8487ZM26.8487 10.2927V10.7805H26.3609V10.2927H26.8487ZM26.8487 10.7805V11.2683H26.3609V10.7805H26.8487ZM26.8487 11.2683V11.7561H26.3609V11.2683H26.8487ZM26.8487 11.7561V12.2439H26.3609V11.7561H26.8487ZM26.8487 12.2439V12.7317H26.3609V12.2439H26.8487ZM26.8487 13.2195V13.7073H26.3609V13.2195H26.8487ZM26.8487 13.7073V14.1951H26.3609V13.7073H26.8487ZM26.8487 14.1951V14.6829H26.3609V14.1951H26.8487ZM26.8487 14.6829V15.1707H26.3609V14.6829H26.8487ZM26.8487 15.1707V15.6585H26.3609V15.1707H26.8487ZM26.8487 15.6585V16.1463H26.3609V15.6585H26.8487ZM26.8487 16.1463V16.6341H26.3609V16.1463H26.8487ZM27.3365 16.6341V17.122H26.8487V16.6341H27.3365ZM27.3365 17.122V17.6098H26.8487V17.122H27.3365ZM27.3365 17.6098V18.0976H26.8487V17.6098H27.3365ZM27.3365 16.1463V16.6341H26.8487V16.1463H27.3365ZM27.3365 15.6585V16.1463H26.8487V15.6585H27.3365ZM27.3365 15.1707V15.6585H26.8487V15.1707H27.3365ZM27.3365 14.6829V15.1707H26.8487V14.6829H27.3365ZM27.3365 14.1951V14.6829H26.8487V14.1951H27.3365ZM27.3365 13.7073V14.1951H26.8487V13.7073H27.3365ZM27.3365 13.2195V13.7073H26.8487V13.2195H27.3365ZM27.3365 12.7317V13.2195H26.8487V12.7317H27.3365ZM27.3365 12.2439V12.7317H26.8487V12.2439H27.3365ZM27.3365 11.7561V12.2439H26.8487V11.7561H27.3365ZM26.8487 12.7317V13.2195H26.3609V12.7317H26.8487ZM27.3365 11.2683V11.7561H26.8487V11.2683H27.3365ZM27.3365 10.7805V11.2683H26.8487V10.7805H27.3365ZM27.3365 10.2927V10.7805H26.8487V10.2927H27.3365ZM27.3365 9.80488V10.2927H26.8487V9.80488H27.3365ZM26.3609 9.80488V10.2927H25.8731V9.80488H26.3609ZM25.8731 9.80488V10.2927H25.3853V9.80488H25.8731ZM25.8731 10.2927V10.7805H25.3853V10.2927H25.8731ZM26.3609 10.2927V10.7805H25.8731V10.2927H26.3609ZM26.3609 10.7805V11.2683H25.8731V10.7805H26.3609ZM26.3609 11.2683V11.7561H25.8731V11.2683H26.3609ZM26.3609 11.7561V12.2439H25.8731V11.7561H26.3609ZM26.3609 12.2439V12.7317H25.8731V12.2439H26.3609ZM26.3609 12.7317V13.2195H25.8731V12.7317H26.3609ZM26.3609 13.2195V13.7073H25.8731V13.2195H26.3609ZM25.8731 13.7073V14.1951H25.3853V13.7073H25.8731ZM25.8731 14.1951V14.6829H25.3853V14.1951H25.8731ZM25.8731 13.2195V13.7073H25.3853V13.2195H25.8731ZM25.8731 12.7317V13.2195H25.3853V12.7317H25.8731ZM25.8731 12.2439V12.7317H25.3853V12.2439H25.8731ZM25.8731 11.7561V12.2439H25.3853V11.7561H25.8731ZM25.8731 11.2683V11.7561H25.3853V11.2683H25.8731ZM25.8731 10.7805V11.2683H25.3853V10.7805H25.8731ZM26.3609 13.7073V14.1951H25.8731V13.7073H26.3609ZM26.3609 14.1951V14.6829H25.8731V14.1951H26.3609ZM26.3609 14.6829V15.1707H25.8731V14.6829H26.3609ZM26.3609 15.1707V15.6585H25.8731V15.1707H26.3609ZM26.3609 15.6585V16.1463H25.8731V15.6585H26.3609ZM26.3609 16.1463V16.6341H25.8731V16.1463H26.3609ZM26.3609 16.6341V17.122H25.8731V16.6341H26.3609ZM26.3609 17.122V17.6098H25.8731V17.122H26.3609ZM26.3609 17.6098V18.0976H25.8731V17.6098H26.3609ZM26.8487 17.122V17.6098H26.3609V17.122H26.8487ZM26.8487 16.6341V17.122H26.3609V16.6341H26.8487ZM24.8974 9.80488V10.2927H24.4096V9.80488H24.8974ZM24.4096 9.80488V10.2927H23.9218V9.80488H24.4096ZM23.9218 9.80488V10.2927H23.434V9.80488H23.9218ZM23.434 9.80488V10.2927H22.9462V9.80488H23.434ZM22.9462 9.80488V10.2927H22.4584V9.80488H22.9462ZM22.9462 10.2927V10.7805H22.4584V10.2927H22.9462ZM22.9462 10.7805V11.2683H22.4584V10.7805H22.9462ZM23.434 10.2927V10.7805H22.9462V10.2927H23.434ZM23.9218 10.2927V10.7805H23.434V10.2927H23.9218ZM24.4096 10.2927V10.7805H23.9218V10.2927H24.4096ZM24.8974 10.7805V11.2683H24.4096V10.7805H24.8974ZM24.8974 10.2927V10.7805H24.4096V10.2927H24.8974ZM24.4096 10.7805V11.2683H23.9218V10.7805H24.4096ZM23.9218 10.7805V11.2683H23.434V10.7805H23.9218ZM23.434 10.7805V11.2683H22.9462V10.7805H23.434ZM27.8243 9.80488V10.2927H27.3365V9.80488H27.8243ZM28.3121 9.80488V10.2927H27.8243V9.80488H28.3121ZM28.7999 9.80488V10.2927H28.3121V9.80488H28.7999ZM29.2877 9.80488V10.2927H28.7999V9.80488H29.2877ZM29.7755 9.80488V10.2927H29.2877V9.80488H29.7755ZM29.7755 10.2927V10.7805H29.2877V10.2927H29.7755ZM29.2877 10.2927V10.7805H28.7999V10.2927H29.2877ZM28.7999 10.2927V10.7805H28.3121V10.2927H28.7999ZM28.3121 10.2927V10.7805H27.8243V10.2927H28.3121ZM27.8243 10.2927V10.7805H27.3365V10.2927H27.8243ZM27.8243 10.7805V11.2683H27.3365V10.7805H27.8243ZM28.3121 10.7805V11.2683H27.8243V10.7805H28.3121ZM28.7999 10.7805V11.2683H28.3121V10.7805H28.7999ZM29.2877 10.7805V11.2683H28.7999V10.7805H29.2877ZM29.7755 10.7805V11.2683H29.2877V10.7805H29.7755ZM22.9462 11.2683V11.7561H22.4584V11.2683H22.9462ZM22.9462 11.7561V12.2439H22.4584V11.7561H22.9462ZM23.434 11.7561V12.2439H22.9462V11.7561H23.434ZM23.9218 11.7561V12.2439H23.434V11.7561H23.9218ZM24.4096 11.7561V12.2439H23.9218V11.7561H24.4096ZM24.8974 11.7561V12.2439H24.4096V11.7561H24.8974ZM24.8974 11.2683V11.7561H24.4096V11.2683H24.8974ZM24.4096 11.2683V11.7561H23.9218V11.2683H24.4096ZM23.9218 11.2683V11.7561H23.434V11.2683H23.9218ZM23.434 11.2683V11.7561H22.9462V11.2683H23.434ZM29.7755 11.2683V11.7561H29.2877V11.2683H29.7755ZM29.7755 11.7561V12.2439H29.2877V11.7561H29.7755ZM29.2877 11.7561V12.2439H28.7999V11.7561H29.2877ZM28.7999 11.7561V12.2439H28.3121V11.7561H28.7999ZM28.3121 11.7561V12.2439H27.8243V11.7561H28.3121ZM27.8243 11.7561V12.2439H27.3365V11.7561H27.8243ZM27.8243 11.2683V11.7561H27.3365V11.2683H27.8243ZM28.3121 11.2683V11.7561H27.8243V11.2683H28.3121ZM28.7999 11.2683V11.7561H28.3121V11.2683H28.7999ZM29.2877 11.2683V11.7561H28.7999V11.2683H29.2877Z" fill="#FF6A00"/>
</g>
<defs>
<clipPath id="clip0_150_15">
<rect width="32" height="32" fill="white"/>
</clipPath>
</defs>
</svg>
